<svg xmlns="http://www.w3.org/2000/svg" xmlns:xlink="http://www.w3.org/1999/xlink" width="300" zoomAndPan="magnify" viewBox="0 0 224.87999 225" height="300" preserveAspectRatio="xMidYMid meet" version="1.0"><defs><clipPath id="ec47e4bc21"><path d="M 17 83 L 211 83 L 211 198.179688 L 17 198.179688 Z M 17 83 " clip-rule="nonzero"/></clipPath><clipPath id="42d32abe9b"><path d="M 14 26.523438 L 210 26.523438 L 210 71 L 14 71 Z M 14 26.523438 " clip-rule="nonzero"/></clipPath><clipPath id="d00b3d3936"><path d="M 16 90 L 211.066406 90 L 211.066406 91 L 16 91 Z M 16 90 " clip-rule="nonzero"/></clipPath></defs><path fill="#ff00be" d="M 16.503906 54.675781 L 16.503906 83.539062 C 16.503906 83.816406 16.53125 84.09375 16.585938 84.367188 C 16.640625 84.640625 16.722656 84.902344 16.828125 85.160156 C 16.9375 85.417969 17.066406 85.660156 17.222656 85.894531 C 17.378906 86.125 17.554688 86.339844 17.753906 86.535156 C 17.953125 86.730469 18.167969 86.90625 18.402344 87.0625 C 18.636719 87.21875 18.882812 87.347656 19.140625 87.453125 C 19.398438 87.558594 19.667969 87.640625 19.941406 87.695312 C 20.21875 87.75 20.496094 87.777344 20.777344 87.777344 L 32.578125 87.777344 C 32.859375 87.777344 33.136719 87.75 33.410156 87.695312 C 33.6875 87.640625 33.953125 87.558594 34.210938 87.453125 C 34.472656 87.347656 34.71875 87.21875 34.949219 87.0625 C 35.183594 86.90625 35.398438 86.730469 35.597656 86.535156 C 35.796875 86.339844 35.972656 86.125 36.128906 85.894531 C 36.285156 85.660156 36.417969 85.417969 36.523438 85.160156 C 36.632812 84.902344 36.714844 84.640625 36.769531 84.367188 C 36.824219 84.09375 36.851562 83.816406 36.851562 83.539062 L 36.851562 54.675781 C 36.851562 54.398438 36.824219 54.121094 36.769531 53.847656 C 36.714844 53.574219 36.632812 53.3125 36.523438 53.054688 C 36.417969 52.796875 36.285156 52.554688 36.128906 52.320312 C 35.972656 52.089844 35.796875 51.875 35.597656 51.679688 C 35.398438 51.484375 35.183594 51.308594 34.949219 51.152344 C 34.71875 50.996094 34.472656 50.867188 34.210938 50.761719 C 33.953125 50.65625 33.6875 50.574219 33.410156 50.519531 C 33.136719 50.464844 32.859375 50.4375 32.578125 50.4375 L 20.777344 50.4375 C 20.496094 50.4375 20.21875 50.464844 19.941406 50.519531 C 19.667969 50.574219 19.398438 50.65625 19.140625 50.761719 C 18.882812 50.867188 18.636719 50.996094 18.402344 51.152344 C 18.167969 51.308594 17.953125 51.484375 17.753906 51.679688 C 17.554688 51.875 17.378906 52.089844 17.222656 52.320312 C 17.066406 52.554688 16.9375 52.796875 16.828125 53.054688 C 16.722656 53.3125 16.640625 53.574219 16.585938 53.847656 C 16.53125 54.121094 16.503906 54.398438 16.503906 54.675781 " fill-opacity="1" fill-rule="evenodd"/><g clip-path="url(#ec47e4bc21)"><path fill="#ff00be" d="M 20.859375 83.234375 L 206.386719 83.234375 C 206.875 83.234375 207.34375 83.328125 207.792969 83.515625 C 208.246094 83.699219 208.644531 83.964844 208.988281 84.308594 C 209.332031 84.65625 209.597656 85.050781 209.785156 85.5 C 209.972656 85.953125 210.066406 86.417969 210.066406 86.90625 L 210.066406 194.511719 C 210.066406 194.996094 209.972656 195.464844 209.785156 195.914062 C 209.597656 196.367188 209.332031 196.761719 208.988281 197.105469 C 208.644531 197.453125 208.246094 197.714844 207.792969 197.902344 C 207.34375 198.089844 206.875 198.183594 206.386719 198.183594 L 20.859375 198.183594 C 20.371094 198.183594 19.902344 198.089844 19.453125 197.902344 C 19 197.714844 18.601562 197.453125 18.257812 197.105469 C 17.914062 196.761719 17.644531 196.367188 17.460938 195.914062 C 17.273438 195.464844 17.179688 194.996094 17.179688 194.511719 L 17.179688 86.90625 C 17.179688 86.417969 17.273438 85.953125 17.460938 85.5 C 17.644531 85.050781 17.914062 84.65625 18.257812 84.308594 C 18.601562 83.964844 19 83.699219 19.453125 83.515625 C 19.902344 83.328125 20.371094 83.234375 20.859375 83.234375 " fill-opacity="1" fill-rule="evenodd"/></g><path fill="#ff00be" d="M 16.277344 70.292969 L 210.960938 70.292969 L 210.960938 90.46875 L 16.277344 90.46875 Z M 16.277344 70.292969 " fill-opacity="1" fill-rule="evenodd"/><path fill="#000000" d="M 36.925781 89.339844 L 55.554688 89.339844 L 65.359375 71.421875 L 46.730469 71.421875 Z M 36.925781 89.339844 " fill-opacity="1" fill-rule="evenodd"/><path fill="#000000" d="M 84.625 89.339844 L 103.253906 89.339844 L 113.054688 71.421875 L 94.429688 71.421875 Z M 84.625 89.339844 " fill-opacity="1" fill-rule="evenodd"/><path fill="#000000" d="M 132.324219 89.339844 L 150.949219 89.339844 L 160.753906 71.421875 L 142.128906 71.421875 Z M 132.324219 89.339844 " fill-opacity="1" fill-rule="evenodd"/><path fill="#000000" d="M 180.023438 89.339844 L 198.648438 89.339844 L 208.453125 71.421875 L 189.828125 71.421875 Z M 180.023438 89.339844 " fill-opacity="1" fill-rule="evenodd"/><g clip-path="url(#42d32abe9b)"><path fill="#ff00be" d="M 207.203125 26.523438 L 14.003906 50.363281 L 16.515625 70.386719 L 209.714844 46.546875 Z M 207.203125 26.523438 " fill-opacity="1" fill-rule="evenodd"/></g><path fill="#000000" d="M 207.113281 45.730469 L 188.628906 48.011719 L 176.667969 31.425781 L 195.152344 29.144531 Z M 207.113281 45.730469 " fill-opacity="1" fill-rule="evenodd"/><path fill="#000000" d="M 159.78125 51.570312 L 141.296875 53.851562 L 129.335938 37.265625 L 147.820312 34.988281 Z M 159.78125 51.570312 " fill-opacity="1" fill-rule="evenodd"/><path fill="#000000" d="M 112.449219 57.410156 L 93.960938 59.691406 L 82.003906 43.109375 L 100.488281 40.828125 Z M 112.449219 57.410156 " fill-opacity="1" fill-rule="evenodd"/><path fill="#000000" d="M 65.113281 63.25 L 46.628906 65.53125 L 34.667969 48.949219 L 53.152344 46.667969 Z M 65.113281 63.25 " fill-opacity="1" fill-rule="evenodd"/><path stroke-linecap="butt" transform="matrix(0.282673, -0.0348807, 0.0351745, 0.280311, -10.837509, 15.243105)" fill-opacity="1" fill="#000000" fill-rule="evenodd" stroke-linejoin="miter" d="M 125.71005 168.07892 C 125.716407 169.027319 125.627506 169.963864 125.456955 170.890249 C 125.272795 171.814941 125.008694 172.715749 124.65275 173.577258 C 124.308707 174.454184 123.859213 175.290117 123.3468 176.076414 C 122.820779 176.861018 122.233547 177.582264 121.569789 178.252181 C 120.90603 178.922097 120.18106 179.528656 119.396587 180.058133 C 118.613822 180.573887 117.783454 181.027976 116.924215 181.380924 C 116.049659 181.745902 115.144525 182.023463 114.224127 182.201576 C 113.302022 182.393413 112.364654 182.485802 111.42563 182.480437 C 110.484899 182.488795 109.544221 182.385677 108.627396 182.201915 C 107.696963 182.016459 106.803993 181.752052 105.922976 181.391585 C 105.057274 181.019088 104.227328 180.581364 103.450159 180.052659 C 102.67299 179.523954 101.945185 178.931714 101.282058 178.263911 C 100.618931 177.596107 100.018775 176.866462 99.508807 176.078363 C 98.985231 175.288571 98.550135 174.454047 98.188203 173.58682 C 97.841587 172.707565 97.566427 171.80933 97.391648 170.88178 C 97.21687 169.95423 97.125448 169.023117 97.1327 168.076412 C 97.124636 167.141736 97.213537 166.205191 97.397696 165.2805 C 97.568247 164.354115 97.832348 163.453306 98.19 162.578074 C 98.547651 161.702842 98.98183 160.878938 99.509558 160.080611 C 100.021971 159.294314 100.622811 158.574762 101.28657 157.904845 C 101.950328 157.234928 102.675298 156.62837 103.444455 156.110922 C 104.228928 155.581445 105.057588 155.141079 105.932143 154.776101 C 106.806699 154.411123 107.698225 154.131869 108.618623 153.953756 C 109.554336 153.763613 110.478096 153.66953 111.430728 153.676588 C 112.369752 153.681953 113.298529 153.769655 114.228962 153.955111 C 115.145787 154.138874 116.052365 154.404974 116.918067 154.77747 C 117.785476 155.136244 118.615422 155.573969 119.392591 156.102673 C 120.183368 156.633072 120.909466 157.239034 121.572593 157.906838 C 122.23572 158.574641 122.822267 159.302593 123.345843 160.092385 C 123.871127 160.868455 124.306224 161.702979 124.65284 162.582235 C 125.014772 163.449461 125.276323 164.346002 125.451102 165.273552 C 125.639489 166.202796 125.717302 167.132215 125.71005 168.07892 Z M 125.71005 168.07892 " stroke="#ffffff" stroke-width="4" stroke-opacity="1" stroke-miterlimit="4"/><g clip-path="url(#d00b3d3936)"><path stroke-linecap="butt" transform="matrix(0.410629, 0, 0, 0.409686, -40.36089, -89.386577)" fill="none" stroke-linejoin="miter" d="M 137.854432 439.074602 L 612.051089 439.074602 " stroke="#cccccc" stroke-width="0.692" stroke-opacity="1" stroke-miterlimit="4"/></g><path stroke-linecap="butt" transform="matrix(0.284853, 0, 0, 0.282474, -4.711342, -9.73954)" fill="none" stroke-linejoin="miter" d="M 104.125794 618.354387 L 726.705354 618.354387 " stroke="#ffffff" stroke-width="4" stroke-opacity="1" stroke-miterlimit="4"/><path stroke-linecap="butt" transform="matrix(0.284853, 0, 0, 0.282474, -10.631377, -9.73954)" fill="none" stroke-linejoin="miter" d="M 307.966144 713.150066 L 307.966144 619.322395 " stroke="#ffffff" stroke-width="4" stroke-opacity="1" stroke-miterlimit="4"/><path stroke-linecap="butt" transform="matrix(0.284853, 0, 0, 0.282474, -10.631377, -9.73954)" fill="none" stroke-linejoin="miter" d="M 564.430526 713.150066 L 564.430526 619.322395 " stroke="#ffffff" stroke-width="4" stroke-opacity="1" stroke-miterlimit="4"/><path stroke-linecap="butt" transform="matrix(0.284853, 0, 0, 0.282474, -4.711342, -9.73954)" fill="none" stroke-linejoin="miter" d="M 104.125794 524.48523 L 726.705354 524.48523 " stroke="#ffffff" stroke-width="4" stroke-opacity="1" stroke-miterlimit="4"/><path stroke-linecap="butt" transform="matrix(0.284853, 0, 0, 0.282474, -4.711342, -9.73954)" fill="none" stroke-linejoin="miter" d="M 104.125794 430.629903 L 726.705354 430.629903 " stroke="#ffffff" stroke-width="4" stroke-opacity="1" stroke-miterlimit="4"/></svg>